<svg width="18" height="19" viewBox="0 0 18 19" fill="none" xmlns="http://www.w3.org/2000/svg">
<g id="d68828195658f6ca98d3f9908842a34e 3">
<g clip-path="url(#clip0_43_1014)">
<g id="Group">
<path id="Vector" d="M9.00005 0.191895C4.12925 0.191895 0.180054 4.15202 0.180054 9.0363C0.180054 13.9206 4.12925 17.8807 9.00005 17.8807C13.8709 17.8807 17.8201 13.9206 17.8201 9.0363C17.8201 4.15202 13.8709 0.191895 9.00005 0.191895ZM14.8231 6.73134L8.51225 12.9098C8.48165 12.9405 8.44745 12.9639 8.41325 12.9892C8.36825 13.0831 8.30885 13.1733 8.23145 13.2527C7.88765 13.5975 7.34585 13.6155 7.02365 13.2924L3.22925 9.48935C2.90705 9.16626 2.92505 8.62477 3.26885 8.27821C3.61265 7.93346 4.15445 7.91541 4.47665 8.2367L7.57985 11.3503L13.5901 5.46605C13.9393 5.12491 14.4973 5.13213 14.8375 5.48049C15.1777 5.83066 15.1723 6.3902 14.8231 6.73134Z" fill="#00BD1E"/>
</g>
</g>
</g>
<defs>
<clipPath id="clip0_43_1014">
<rect y="0.0112305" width="18" height="18.0498" rx="5" fill="white"/>
</clipPath>
</defs>
</svg>
