<svg width="16" height="16" viewBox="0 0 16 16" fill="none" xmlns="http://www.w3.org/2000/svg">
<g id="640fdc35a259b255ed8abd13f30adbcd 2" clip-path="url(#clip0_43_968)">
<g id="Group">
<path id="Vector" d="M10.5023 0.504066C10.9615 0.0448665 11.7071 0.0448665 12.1663 0.504066C12.6255 0.963266 12.6255 1.70887 12.1663 2.16807L7.05434 7.28167C6.89434 7.48807 6.80474 7.74087 6.80474 8.00487C6.80474 8.26887 6.89434 8.52327 7.05434 8.72807L12.1567 13.8305C12.6159 14.2897 12.6159 15.0353 12.1567 15.4945C11.6975 15.9537 10.9519 15.9537 10.4927 15.4945L3.83514 8.83687C3.61434 8.61607 3.49114 8.31687 3.49114 8.00487C3.49114 7.69287 3.61434 7.39367 3.83514 7.17287L10.5023 0.504066Z" fill="black"/>
</g>
</g>
<defs>
<clipPath id="clip0_43_968">
<rect width="16" height="16" fill="white" transform="matrix(4.37114e-08 -1 -1 -4.37114e-08 16 16)"/>
</clipPath>
</defs>
</svg>
