<svg width="16" height="16" viewBox="0 0 16 16" fill="none" xmlns="http://www.w3.org/2000/svg">
<g id="640fdc35a259b255ed8abd13f30adbcd 2" clip-path="url(#clip0_43_961)">
<g id="Group">
<path id="Vector" d="M5.49766 0.504066C5.03846 0.0448665 4.29286 0.0448665 3.83366 0.504066C3.37446 0.963266 3.37446 1.70887 3.83366 2.16807L8.94566 7.28167C9.10566 7.48807 9.19526 7.74087 9.19526 8.00487C9.19526 8.26887 9.10566 8.52327 8.94566 8.72807L3.84326 13.8305C3.38406 14.2897 3.38406 15.0353 3.84326 15.4945C4.30246 15.9537 5.04806 15.9537 5.50726 15.4945L12.1649 8.83687C12.3857 8.61607 12.5089 8.31687 12.5089 8.00487C12.5089 7.69287 12.3857 7.39367 12.1649 7.17287L5.49766 0.504066Z" fill="black"/>
</g>
</g>
<defs>
<clipPath id="clip0_43_961">
<rect width="16" height="16" fill="white" transform="translate(0 16) rotate(-90)"/>
</clipPath>
</defs>
</svg>
