<svg width="33" height="32" viewBox="0 0 33 32" fill="none" xmlns="http://www.w3.org/2000/svg">
<g id="ca22fd7c33a5651d317cca61c6fb732c 1" clip-path="url(#clip0_43_1059)">
<g id="Group">
<path id="Vector" d="M16.7937 0.320068C8.02556 0.320068 0.917356 7.15847 0.917356 15.5969C0.917356 18.4833 1.74896 21.1809 3.19436 23.4849L0.329956 31.6801L9.12116 28.9729C11.3949 30.1825 14.0118 30.8737 16.7937 30.8737C25.5618 30.8737 32.67 24.0321 32.67 15.5969C32.67 7.15847 25.5618 0.320068 16.7937 0.320068ZM24.6873 21.3985C24.3144 22.2977 22.6248 23.1169 21.879 23.1521C21.1332 23.1905 21.1134 23.7121 17.0544 22.0033C12.9954 20.2913 10.5534 16.1345 10.362 15.8657C10.1706 15.6001 8.79116 13.6929 8.86376 11.7729C8.93966 9.85287 10.0221 8.94727 10.4082 8.57287C10.7943 8.19527 11.2365 8.12807 11.5071 8.12487C11.8272 8.11847 12.0351 8.11527 12.2694 8.12487C12.507 8.13447 12.8601 8.07687 13.167 8.87047C13.4739 9.66407 14.2098 11.6097 14.3022 11.8113C14.3946 12.0097 14.454 12.2401 14.3088 12.4961C14.1636 12.7521 14.0877 12.9121 13.8798 13.1329C13.6686 13.3537 13.4343 13.6257 13.2462 13.7953C13.035 13.9809 12.8139 14.1857 13.0383 14.5857C13.2594 14.9857 14.025 16.2913 15.1866 17.3665C16.6815 18.7489 17.9718 19.2097 18.3711 19.4177C18.7704 19.6289 19.008 19.6033 19.2522 19.3537C19.4964 19.1009 20.3082 18.2529 20.5953 17.8721C20.8824 17.4913 21.1497 17.5649 21.516 17.7089C21.8823 17.8529 23.8359 18.8673 24.2352 19.0785C24.6345 19.2865 24.8985 19.3953 24.9942 19.5617C25.0899 19.7185 25.0602 20.4993 24.6873 21.3985Z" fill="#42B000"/>
</g>
</g>
<defs>
<clipPath id="clip0_43_1059">
<rect width="33" height="32" fill="white"/>
</clipPath>
</defs>
</svg>
