<svg width="14" height="14" viewBox="0 0 14 14" fill="none" xmlns="http://www.w3.org/2000/svg">
<g id="&#209;&#129;&#209;&#130;&#209;&#128;&#208;&#181;&#208;&#187;&#208;&#186;&#208;&#176; 1">
<g id="Group">
<path id="Vector" d="M13.5586 4.81033C13.9604 4.40853 13.9604 3.75613 13.5586 3.35433C13.1568 2.95253 12.5044 2.95253 12.1026 3.35433L7.62818 7.82733C7.44758 7.96733 7.22638 8.04573 6.99538 8.04573C6.76438 8.04573 6.54178 7.96733 6.36258 7.82733L1.89798 3.36273C1.49618 2.96093 0.843775 2.96093 0.441975 3.36273C0.040175 3.76453 0.040175 4.41693 0.441975 4.81873L6.26737 10.6441C6.46058 10.8373 6.72238 10.9451 6.99538 10.9451C7.26838 10.9451 7.53018 10.8373 7.72338 10.6441L13.5586 4.81033Z" fill="black"/>
</g>
</g>
</svg>
