<svg width="19" height="19" viewBox="0 0 19 19" fill="none" xmlns="http://www.w3.org/2000/svg">
<g id="close 1" clip-path="url(#clip0_85_615)">
<g id="Group">
<g id="Group_2">
<path id="Vector" d="M0.734068 0.271338C0.501318 0.376026 0.268568 0.684397 0.216318 0.957808C0.129108 1.4349 0.0534887 1.3475 4.25382 5.55961L8.18663 9.49831L4.24793 13.4427C2.08383 15.607 0.286048 17.4395 0.251088 17.5095C0.157988 17.6957 0.175468 18.0912 0.280158 18.3181C0.460468 18.6962 1.02477 18.9058 1.44372 18.7486C1.53093 18.7137 3.38685 16.9218 5.56843 14.7634L9.53031 10.8422L13.4285 14.7459C15.6684 16.9858 17.402 18.6787 17.5067 18.7253C18.2979 19.0686 19.0949 18.2191 18.7109 17.4511C18.6585 17.3464 16.8725 15.5137 14.7374 13.3787L10.8628 9.48672L14.7724 5.61205C18.9843 1.42331 18.8739 1.55118 18.7808 1.03932C18.6761 0.475016 17.9722 0.137575 17.4486 0.399395C17.3439 0.451647 15.5286 2.22625 13.4111 4.3381L9.55387 8.1894L5.64424 4.27977C3.49154 2.13296 1.6474 0.335367 1.54271 0.282927C1.31585 0.172346 0.978408 0.166647 0.734068 0.271338Z" fill="#FF6B00"/>
</g>
</g>
</g>
<defs>
<clipPath id="clip0_85_615">
<rect width="19" height="19" fill="white"/>
</clipPath>
</defs>
</svg>
