<svg width="16" height="16" viewBox="0 0 16 16" fill="none" xmlns="http://www.w3.org/2000/svg">
<g id="&#209;&#128;&#208;&#181;&#208;&#180;&#208;&#176;&#208;&#186;&#209;&#130;&#208;&#184;&#209;&#128;&#208;&#190;&#208;&#178;&#208;&#176;&#209;&#130;&#209;&#140; 1" clip-path="url(#clip0_86_116)">
<g id="Group">
<path id="Vector" d="M7.90813 4.36632L10.7049 7.16312L4.85533 12.8751H2.38333V10.4031L7.90813 4.36632ZM7.90813 3.17432C7.78173 3.17432 7.65533 3.22232 7.55933 3.31992L1.39453 9.90872V13.3679C1.40893 13.6175 1.63933 13.8479 1.88893 13.8623H5.34813L11.7513 7.51192C11.9449 7.31832 11.9449 7.00632 11.7513 6.81272L8.25853 3.31832C8.16093 3.22232 8.03453 3.17432 7.90813 3.17432Z" fill="#FF6B00"/>
<path id="Vector_2" d="M11.3152 1.14871L14.112 3.94551L13.0048 5.05271L10.208 2.25431L11.3152 1.14871C11.3136 1.14871 11.3136 1.14871 11.3152 1.14871ZM11.3152 0.159912C11.0624 0.159912 10.8096 0.255912 10.616 0.449512L8.80957 2.25431L13.0032 6.44791L14.808 4.64311C15.1936 4.25751 15.1936 3.63191 14.808 3.24471L12.0128 0.449512C11.8208 0.255912 11.5664 0.159912 11.3152 0.159912Z" fill="#FF6B00"/>
<path id="Vector_3" d="M14.246 15.8399H1.39479C1.12119 15.8399 0.900391 15.6191 0.900391 15.3455C0.900391 15.0719 1.12119 14.8511 1.39479 14.8511H14.246C14.5196 14.8511 14.7404 15.0719 14.7404 15.3455C14.7404 15.6191 14.5196 15.8399 14.246 15.8399Z" fill="#FF6B00"/>
</g>
</g>
<defs>
<clipPath id="clip0_86_116">
<rect width="16" height="16" fill="white"/>
</clipPath>
</defs>
</svg>
