<svg width="20" height="20" viewBox="0 0 20 20" fill="none" xmlns="http://www.w3.org/2000/svg">
<g id="8b69f428573c3c97bc4857a50eaaba1d 1">
<g clip-path="url(#clip0_20_46)">
<g id="Group">
<g id="Group_2">
<path id="Vector" d="M18.837 9.46981C18.836 9.46884 18.836 9.46884 18.837 9.46981L14.0943 4.7271C13.6578 4.29058 12.9493 4.29058 12.5127 4.7271C12.0762 5.16362 12.0762 5.87213 12.5127 6.30865L15.3468 9.14266L2.23655 9.14169C1.61903 9.14169 1.11862 9.6421 1.11862 10.2596C1.11959 10.5684 1.24445 10.8481 1.44674 11.0504C1.64903 11.2527 1.92876 11.3775 2.23655 11.3775L15.3477 11.3775L12.5137 14.2116C12.0772 14.6481 12.0772 15.3566 12.5137 15.7931C12.9502 16.2296 13.6587 16.2296 14.0953 15.7931L19.6278 10.2606L18.837 9.46981Z" fill="white"/>
</g>
</g>
</g>
</g>
<defs>
<clipPath id="clip0_20_46">
<rect x="10.1414" y="0.580627" width="13.6882" height="13.6882" rx="3" transform="rotate(45 10.1414 0.580627)" fill="white"/>
</clipPath>
</defs>
</svg>
