<svg width="48" height="37" viewBox="0 0 48 37" fill="none" xmlns="http://www.w3.org/2000/svg">
<g id="Group">
<path id="Vector" d="M25.3296 5.00691V23.3774C25.3296 25.1852 25.7136 26.9132 26.4768 28.5571C27.24 30.201 28.272 31.6233 29.5728 32.824C30.8736 34.0248 32.4144 34.9775 34.1952 35.682C35.976 36.3865 37.848 36.7409 39.8064 36.7409H41.616C42.1056 36.7409 42.528 36.577 42.888 36.2447C43.248 35.9124 43.4256 35.5225 43.4256 35.0705V31.7296C43.4256 31.2777 43.248 30.8877 42.888 30.5554C42.528 30.2231 42.1056 30.0592 41.616 30.0592H39.8064C37.8096 30.0592 36.1056 29.4078 34.6896 28.1007C33.2736 26.798 32.568 25.2206 32.568 23.3774V22.5444C32.568 21.8487 32.832 21.2594 33.36 20.772C33.888 20.2846 34.5264 20.0409 35.28 20.0409H41.6112C43.1184 20.0409 44.4 19.5535 45.456 18.5787C46.512 17.6039 47.04 16.4209 47.04 15.0296V5.01134C47.04 3.62004 46.512 2.43699 45.456 1.46219C44.4 0.487398 43.1184 0 41.6112 0H30.7584C29.2512 0 27.9696 0.487398 26.9136 1.46219C25.8576 2.43699 25.3296 3.62004 25.3296 5.00691ZM3.8147e-05 5.00691V23.3774C3.8147e-05 25.1852 0.384041 26.9132 1.14724 28.5571C1.91044 30.201 2.94244 31.6233 4.24324 32.824C5.54404 34.0248 7.08484 34.9775 8.86564 35.682C10.6464 36.3865 12.5184 36.7409 14.4768 36.7409H16.2864C16.776 36.7409 17.1984 36.577 17.5584 36.2447C17.9184 35.9124 18.096 35.5225 18.096 35.0705V31.7296C18.096 31.2777 17.9184 30.8877 17.5584 30.5554C17.1984 30.2231 16.776 30.0592 16.2864 30.0592H14.4768C12.48 30.0592 10.776 29.4078 9.36004 28.1007C7.94404 26.798 7.23844 25.2206 7.23844 23.3774V22.5444C7.23844 21.8487 7.50244 21.2594 8.03044 20.772C8.55844 20.2846 9.19684 20.0409 9.95044 20.0409H16.2864C17.7936 20.0409 19.0752 19.5535 20.1312 18.5787C21.1872 17.6039 21.7152 16.4209 21.7152 15.0296V5.01134C21.7152 3.62004 21.1872 2.43699 20.1312 1.46219C19.0752 0.487398 17.7936 0 16.2864 0H5.43364C3.92644 0 2.64484 0.487398 1.58884 1.46219C0.528038 2.43699 3.8147e-05 3.62004 3.8147e-05 5.00691Z" fill="#FF6B00"/>
</g>
</svg>
