<svg width="20" height="20" viewBox="0 0 20 20" fill="none" xmlns="http://www.w3.org/2000/svg">
<g id="8b69f428573c3c97bc4857a50eaaba1d 1">
<g clip-path="url(#clip0_23_162)">
<g id="Group">
<g id="Group_2">
<path id="Vector" d="M18.837 9.46984C18.836 9.46887 18.836 9.46887 18.837 9.46984L14.0943 4.72713C13.6578 4.29061 12.9493 4.29061 12.5127 4.72713C12.0762 5.16366 12.0762 5.87216 12.5127 6.30868L15.3468 9.14269L2.23655 9.14172C1.61903 9.14172 1.11862 9.64213 1.11862 10.2596C1.11959 10.5684 1.24445 10.8481 1.44674 11.0504C1.64903 11.2527 1.92875 11.3776 2.23655 11.3776L15.3477 11.3776L12.5137 14.2116C12.0772 14.6481 12.0772 15.3566 12.5137 15.7931C12.9502 16.2297 13.6587 16.2297 14.0953 15.7931L19.6278 10.2606L18.837 9.46984Z" fill="white"/>
</g>
</g>
</g>
</g>
<defs>
<clipPath id="clip0_23_162">
<rect x="10.1414" y="0.580627" width="13.6882" height="13.6882" rx="3" transform="rotate(45 10.1414 0.580627)" fill="white"/>
</clipPath>
</defs>
</svg>
