<svg width="48" height="40" viewBox="0 0 48 40" fill="none" xmlns="http://www.w3.org/2000/svg">
<g id="Group">
<path id="Vector" d="M25.3296 5.32159V24.8466C25.3296 26.768 25.7136 28.6047 26.4768 30.3519C27.24 32.0991 28.272 33.6108 29.5728 34.887C30.8736 36.1632 32.4144 37.1758 34.1952 37.9245C35.976 38.6733 37.848 39.0501 39.8064 39.0501H41.616C42.1056 39.0501 42.528 38.8758 42.888 38.5226C43.248 38.1694 43.4256 37.755 43.4256 37.2747V33.7238C43.4256 33.2434 43.248 32.829 42.888 32.4758C42.528 32.1226 42.1056 31.9484 41.616 31.9484H39.8064C37.8096 31.9484 36.1056 31.2561 34.6896 29.8668C33.2736 28.4823 32.568 26.8057 32.568 24.8466V23.9613C32.568 23.2219 32.832 22.5956 33.36 22.0775C33.888 21.5595 34.5264 21.3005 35.28 21.3005H41.6112C43.1184 21.3005 44.4 20.7824 45.456 19.7464C46.512 18.7103 47.04 17.4529 47.04 15.9742V5.3263C47.04 3.84755 46.512 2.59015 45.456 1.55409C44.4 0.518031 43.1184 0 41.6112 0H30.7584C29.2512 0 27.9696 0.518031 26.9136 1.55409C25.8576 2.59015 25.3296 3.84755 25.3296 5.32159ZM7.62939e-06 5.32159V24.8466C7.62939e-06 26.768 0.38401 28.6047 1.14721 30.3519C1.91041 32.0991 2.94241 33.6108 4.24321 34.887C5.54401 36.1632 7.08481 37.1758 8.86561 37.9245C10.6464 38.6733 12.5184 39.0501 14.4768 39.0501H16.2864C16.776 39.0501 17.1984 38.8758 17.5584 38.5226C17.9184 38.1694 18.096 37.755 18.096 37.2747V33.7238C18.096 33.2434 17.9184 32.829 17.5584 32.4758C17.1984 32.1226 16.776 31.9484 16.2864 31.9484H14.4768C12.48 31.9484 10.776 31.2561 9.36001 29.8668C7.94401 28.4823 7.23841 26.8057 7.23841 24.8466V23.9613C7.23841 23.2219 7.50241 22.5956 8.03041 22.0775C8.55841 21.5595 9.19681 21.3005 9.95041 21.3005H16.2864C17.7936 21.3005 19.0752 20.7824 20.1312 19.7464C21.1872 18.7103 21.7152 17.4529 21.7152 15.9742V5.3263C21.7152 3.84755 21.1872 2.59015 20.1312 1.55409C19.0752 0.518031 17.7936 0 16.2864 0H5.43361C3.92641 0 2.64481 0.518031 1.58881 1.55409C0.528008 2.59015 7.62939e-06 3.84755 7.62939e-06 5.32159Z" fill="#FF6B00"/>
</g>
</svg>
