<svg width="10" height="10" viewBox="0 0 10 10" fill="none" xmlns="http://www.w3.org/2000/svg">
<g id="640fdc35a259b255ed8abd13f30adbcd 1">
<g id="Group">
<path id="Vector" d="M3.43591 0.314919C3.14891 0.0279198 2.68291 0.0279198 2.39591 0.314919C2.10891 0.601919 2.10891 1.06792 2.39591 1.35492L5.59091 4.55092C5.69091 4.67992 5.74691 4.83792 5.74691 5.00292C5.74691 5.16792 5.69091 5.32692 5.59091 5.45492L2.40191 8.64392C2.11491 8.93092 2.11491 9.39692 2.40191 9.68392C2.68891 9.97092 3.15491 9.97092 3.44191 9.68392L7.60291 5.52292C7.74091 5.38492 7.81791 5.19792 7.81791 5.00292C7.81791 4.80792 7.74091 4.62092 7.60291 4.48292L3.43591 0.314919Z" fill="black"/>
</g>
</g>
</svg>
