<svg width="17" height="14" viewBox="0 0 17 14" fill="none" xmlns="http://www.w3.org/2000/svg">
<path id="Vector" d="M0 10.2917V3.34423L5.57531 6.81794L0 10.2917ZM16.8647 12.2779C16.6184 12.8191 16.0581 13.1952 15.4058 13.1952H1.59418C0.945408 13.1952 0.385101 12.8208 0.137041 12.2847C0.0485706 12.094 0 11.8813 0 11.6583L6.67337 7.50043L8.5 8.64075L10.3284 7.50213L17 11.6583C17 11.8779 16.9514 12.0872 16.8647 12.2779ZM17 3.34423V10.29L11.4247 6.81794L17 3.34423ZM15.4058 0.440674C16.0581 0.440674 16.6184 0.81851 16.8647 1.35803C16.9514 1.54695 17 1.75629 17 1.97755L8.5 7.27237L0 1.97755C0 1.75459 0.0485706 1.54185 0.137041 1.35123C0.385101 0.815107 0.945408 0.440674 1.59418 0.440674H15.4058Z" fill="#FF8000"/>
</svg>
