<svg width="40" height="40" viewBox="0 0 40 40" fill="none" xmlns="http://www.w3.org/2000/svg">
<g id="72a18efb5f9cc44f119aeac6fe4bb42a 1">
<g id="Group">
<g id="Group_2">
<path id="Vector" d="M19.894 34.8255C19.8352 34.802 19.7646 34.8294 19.7411 34.8921C19.7176 34.9548 19.745 35.0215 19.8078 35.045C20.0273 35.1312 20.1684 35.339 20.1684 35.5742C20.1684 35.8878 19.9136 36.1387 19.6039 36.1387C19.2903 36.1387 19.0394 35.8839 19.0394 35.5703C19.0394 35.3429 19.1766 35.1391 19.3844 35.0489C19.4432 35.0215 19.4746 34.9548 19.4471 34.8921C19.4197 34.8333 19.353 34.802 19.2903 34.8294C18.9924 34.9548 18.8003 35.2449 18.8003 35.5703C18.8003 36.0132 19.161 36.3739 19.6039 36.3739C20.0469 36.3739 20.4075 36.0132 20.4075 35.5703C20.4036 35.241 20.2037 34.947 19.894 34.8255Z" fill="#FF6B00"/>
<path id="Vector_2" d="M19.6 35.7153C19.6666 35.7153 19.7176 35.6643 19.7176 35.5977V35.2841C19.7176 35.2175 19.6627 35.1665 19.6 35.1665C19.5334 35.1665 19.4824 35.2175 19.4824 35.2841V35.5977C19.4824 35.6643 19.5334 35.7153 19.6 35.7153Z" fill="#FF6B00"/>
<path id="Vector_3" d="M28.3102 0.39209H10.8898C9.45896 0.39209 8.29865 1.55241 8.29865 2.98321V36.217C8.29865 37.6478 9.45896 38.8081 10.8898 38.8081H28.3102C29.741 38.8081 30.9014 37.6478 30.9014 36.217V2.98321C30.9014 1.55241 29.741 0.39209 28.3102 0.39209ZM26.2875 2.65785C26.5384 2.65785 26.7422 2.86169 26.7422 3.11257C26.7422 3.36345 26.5384 3.56729 26.2875 3.56729C26.0366 3.56729 25.8289 3.36345 25.8289 3.11257C25.8289 2.86169 26.0366 2.65785 26.2875 2.65785ZM16.4287 2.79113H22.7674C22.9438 2.79113 23.0888 2.93617 23.0888 3.11257C23.0888 3.28897 22.9438 3.43401 22.7674 3.43401H16.4287C16.2523 3.43401 16.1073 3.28897 16.1073 3.11257C16.1073 2.93617 16.2523 2.79113 16.4287 2.79113ZM12.2657 2.79113H14.359C14.5354 2.79113 14.6804 2.93617 14.6804 3.11257C14.6804 3.28897 14.5354 3.43401 14.359 3.43401H12.2657C12.0893 3.43401 11.9442 3.28897 11.9442 3.11257C11.9442 2.93617 12.0893 2.79113 12.2657 2.79113ZM19.5569 37.2244C18.6553 37.2244 17.9262 36.4953 17.9262 35.5937C17.9262 34.6921 18.6553 33.963 19.5569 33.963C20.4546 33.963 21.1876 34.6921 21.1876 35.5937C21.1876 36.4953 20.4546 37.2244 19.5569 37.2244ZM27.4047 30.9642C27.4047 31.3562 27.0872 31.6776 26.6913 31.6776H12.5087C12.1128 31.6776 11.7953 31.3601 11.7953 30.9642V5.38225C11.7953 4.99025 12.1128 4.66881 12.5087 4.66881H26.6913C27.0872 4.66881 27.4047 4.98633 27.4047 5.38225V30.9642Z" fill="#FF6B00"/>
</g>
</g>
</g>
</svg>
