<svg width="20" height="20" viewBox="0 0 20 20" fill="none" xmlns="http://www.w3.org/2000/svg">
<g id="72a18efb5f9cc44f119aeac6fe4bb42a 1">
<g id="Group">
<g id="Group_2">
<path id="Vector" d="M10.15 17.7679C10.12 17.7559 10.084 17.7699 10.072 17.8019C10.06 17.8339 10.074 17.8679 10.106 17.8799C10.218 17.9239 10.29 18.0299 10.29 18.1499C10.29 18.3099 10.16 18.4379 10.002 18.4379C9.84198 18.4379 9.71398 18.3079 9.71398 18.1479C9.71398 18.0319 9.78398 17.9279 9.88998 17.8819C9.91998 17.8679 9.93598 17.8339 9.92198 17.8019C9.90798 17.7719 9.87398 17.7559 9.84198 17.7699C9.68998 17.8339 9.59198 17.9819 9.59198 18.1479C9.59198 18.3739 9.77598 18.5579 10.002 18.5579C10.228 18.5579 10.412 18.3739 10.412 18.1479C10.41 17.9799 10.308 17.8299 10.15 17.7679Z" fill="#FF8000"/>
<path id="Vector_2" d="M10 18.2219C10.034 18.2219 10.06 18.1959 10.06 18.1619V18.0019C10.06 17.9679 10.032 17.9419 10 17.9419C9.966 17.9419 9.94 17.9679 9.94 18.0019V18.1619C9.94 18.1959 9.966 18.2219 10 18.2219Z" fill="#FF8000"/>
<path id="Vector_3" d="M14.444 0.199951H5.55601C4.82601 0.199951 4.23401 0.791951 4.23401 1.52195V18.4779C4.23401 19.2079 4.82601 19.7999 5.55601 19.7999H14.444C15.174 19.7999 15.766 19.2079 15.766 18.4779V1.52195C15.766 0.791951 15.174 0.199951 14.444 0.199951ZM13.412 1.35595C13.54 1.35595 13.644 1.45995 13.644 1.58795C13.644 1.71595 13.54 1.81995 13.412 1.81995C13.284 1.81995 13.178 1.71595 13.178 1.58795C13.178 1.45995 13.284 1.35595 13.412 1.35595ZM8.38201 1.42395H11.616C11.706 1.42395 11.78 1.49795 11.78 1.58795C11.78 1.67795 11.706 1.75195 11.616 1.75195H8.38201C8.29201 1.75195 8.21801 1.67795 8.21801 1.58795C8.21801 1.49795 8.29201 1.42395 8.38201 1.42395ZM6.25801 1.42395H7.32601C7.41601 1.42395 7.49001 1.49795 7.49001 1.58795C7.49001 1.67795 7.41601 1.75195 7.32601 1.75195H6.25801C6.16801 1.75195 6.09401 1.67795 6.09401 1.58795C6.09401 1.49795 6.16801 1.42395 6.25801 1.42395ZM9.97801 18.9919C9.51801 18.9919 9.14601 18.6199 9.14601 18.1599C9.14601 17.6999 9.51801 17.3279 9.97801 17.3279C10.436 17.3279 10.81 17.6999 10.81 18.1599C10.81 18.6199 10.436 18.9919 9.97801 18.9919ZM13.982 15.7979C13.982 15.9979 13.82 16.1619 13.618 16.1619H6.38201C6.18001 16.1619 6.01801 15.9999 6.01801 15.7979V2.74595C6.01801 2.54595 6.18001 2.38195 6.38201 2.38195H13.618C13.82 2.38195 13.982 2.54395 13.982 2.74595V15.7979Z" fill="#FF8000"/>
</g>
</g>
</g>
</svg>
