<svg width="21" height="21" viewBox="0 0 21 21" fill="none" xmlns="http://www.w3.org/2000/svg">
<g id="ca22fd7c33a5651d317cca61c6fb732c 2" clip-path="url(#clip0_29_733)">
<g id="Group">
<path id="Vector" d="M10.6869 0.209961C5.10722 0.209961 0.583822 4.69766 0.583822 10.2354C0.583822 12.1296 1.11302 13.8999 2.03282 15.4119L0.210022 20.79L5.80442 19.0134C7.25132 19.8072 8.91662 20.2608 10.6869 20.2608C16.2666 20.2608 20.79 15.771 20.79 10.2354C20.79 4.69766 16.2666 0.209961 10.6869 0.209961ZM15.7101 14.0427C15.4728 14.6328 14.3976 15.1704 13.923 15.1935C13.4484 15.2187 13.4358 15.561 10.8528 14.4396C8.26982 13.3161 6.71582 10.5882 6.59402 10.4118C6.47222 10.2375 5.59442 8.98586 5.64062 7.72586C5.68892 6.46586 6.37772 5.87156 6.62342 5.62586C6.86912 5.37806 7.15052 5.33396 7.32272 5.33186C7.52642 5.32766 7.65872 5.32556 7.80782 5.33186C7.95902 5.33816 8.18372 5.30036 8.37902 5.82116C8.57432 6.34196 9.04262 7.61876 9.10142 7.75106C9.16022 7.88126 9.19802 8.03246 9.10562 8.20046C9.01322 8.36846 8.96492 8.47346 8.83262 8.61836C8.69822 8.76326 8.54912 8.94176 8.42942 9.05306C8.29502 9.17486 8.15432 9.30926 8.29712 9.57176C8.43782 9.83426 8.92502 10.6911 9.66422 11.3967C10.6155 12.3039 11.4366 12.6063 11.6907 12.7428C11.9448 12.8814 12.096 12.8646 12.2514 12.7008C12.4068 12.5349 12.9234 11.9784 13.1061 11.7285C13.2888 11.4786 13.4589 11.5269 13.692 11.6214C13.9251 11.7159 15.1683 12.3816 15.4224 12.5202C15.6765 12.6567 15.8445 12.7281 15.9054 12.8373C15.9663 12.9402 15.9474 13.4526 15.7101 14.0427Z" fill="#FF6B00"/>
</g>
</g>
<defs>
<clipPath id="clip0_29_733">
<rect width="21" height="21" fill="white"/>
</clipPath>
</defs>
</svg>
